<?xml version="1.0" encoding="utf-8"?>
<!-- Generator: Adobe Illustrator 27.2.0, SVG Export Plug-In . SVG Version: 6.00 Build 0)  -->
<svg version="1.1" id="Layer_1" xmlns="http://www.w3.org/2000/svg" xmlns:xlink="http://www.w3.org/1999/xlink" x="0px" y="0px"
	 viewBox="0 0 800 800" style="enable-background:new 0 0 800 800;" xml:space="preserve">
<style type="text/css">
	.st0{fill:none;}
	.st1{fill:#FFFFFF;}
</style>
<rect class="st0" width="800" height="800"/>
<path class="st1" d="M700,400c-0.3-68.2-23.8-134.3-66.7-187.3v375C676.8,534.8,700.4,468.4,700,400 M587.7,633.3h-375
	c27,20.3,57,36.2,89,47c31.4,12.1,64.7,18.7,98.3,19.7c34.2-0.7,68.1-7.4,100-19.7C531.5,669.3,561,653.4,587.7,633.3 M366.7,566.7
	L233.3,300v266.7H366.7 M566.7,300L433.3,566.7h133.3V300 M400,484.3l125-251H275L400,484.3 M587.7,166.7
	c-109.2-88.9-265.8-88.9-375,0H587.7 M166.7,587.7v-375C123.8,265.7,100.3,331.8,100,400C99.6,468.4,123.2,534.8,166.7,587.7
	 M766.7,400c1.7,97.6-37.2,191.5-107.3,259.3c-67.8,70.2-161.8,109-259.3,107.3c-97.6,1.6-191.4-37.3-259.3-107.3
	C70.5,591.5,31.7,497.6,33.3,400c-1.6-97.6,37.3-191.4,107.3-259.3C208.6,70.6,302.4,31.7,400,33.3c97.6-1.7,191.5,37.2,259.3,107.3
	C729.4,208.6,768.3,302.4,766.7,400z"/>
</svg>
